<?xml version="1.0" encoding="UTF-8"?>
<!DOCTYPE svg PUBLIC "-//W3C//DTD SVG 1.1//EN" "http://www.w3.org/Graphics/SVG/1.1/DTD/svg11.dtd">
<svg xmlns="http://www.w3.org/2000/svg" version="1.1" width="250px" height="168px" style="shape-rendering:geometricPrecision; text-rendering:geometricPrecision; image-rendering:optimizeQuality; fill-rule:evenodd; clip-rule:evenodd" xmlns:xlink="http://www.w3.org/1999/xlink">
<g><path style="opacity:1" fill="#fcfcfc" d="M -0.5,-0.5 C 82.8333,-0.5 166.167,-0.5 249.5,-0.5C 249.5,55.5 249.5,111.5 249.5,167.5C 166.167,167.5 82.8333,167.5 -0.5,167.5C -0.5,111.5 -0.5,55.5 -0.5,-0.5 Z"/></g>
<g><path style="opacity:1" fill="#110101" d="M 148.5,10.5 C 141.833,17.5 135.167,24.5 128.5,31.5C 120.167,31.5 111.833,31.5 103.5,31.5C 103.5,46.5 103.5,61.5 103.5,76.5C 116.99,77.4957 130.656,77.829 144.5,77.5C 144.5,84.1667 144.5,90.8333 144.5,97.5C 123.833,97.5 103.167,97.5 82.5,97.5C 82.5,68.5 82.5,39.5 82.5,10.5C 104.5,10.5 126.5,10.5 148.5,10.5 Z"/></g>
<g><path style="opacity:1" fill="#555151" d="M 149.5,9.5 C 149.5,10.1667 149.167,10.5 148.5,10.5C 126.5,10.5 104.5,10.5 82.5,10.5C 82.5,39.5 82.5,68.5 82.5,97.5C 103.167,97.5 123.833,97.5 144.5,97.5C 144.5,97.8333 144.5,98.1667 144.5,98.5C 123.5,98.5 102.5,98.5 81.5,98.5C 81.5,68.8333 81.5,39.1667 81.5,9.5C 104.167,9.5 126.833,9.5 149.5,9.5 Z"/></g>
<g><path style="opacity:1" fill="#d26012" d="M 167.5,97.5 C 161.642,97.8222 155.975,97.4889 150.5,96.5C 156.425,96.8082 162.259,96.4749 168,95.5C 168.667,68.8333 168.667,42.1667 168,15.5C 167.626,14.5838 167.126,13.7504 166.5,13C 162.833,12.3333 159.167,12.3333 155.5,13C 154.922,14.417 153.922,15.2504 152.5,15.5C 152.511,13.9826 153.177,12.8159 154.5,12C 159.489,11.5007 164.489,11.3341 169.5,11.5C 170.159,40.5195 169.492,69.1861 167.5,97.5 Z"/></g>
<g><path style="opacity:1" fill="#da8c5b" d="M 169.5,9.5 C 170.833,39.1667 170.833,68.8333 169.5,98.5C 168.833,98.5 168.167,98.5 167.5,98.5C 167.5,98.1667 167.5,97.8333 167.5,97.5C 169.492,69.1861 170.159,40.5195 169.5,11.5C 164.489,11.3341 159.489,11.5007 154.5,12C 153.177,12.8159 152.511,13.9826 152.5,15.5C 151.5,15.5 150.5,15.5 149.5,15.5C 150.96,13.5372 152.627,11.7038 154.5,10C 159.489,9.50074 164.489,9.33407 169.5,9.5 Z"/></g>
<g><path style="opacity:1" fill="#cc7033" d="M 149.5,15.5 C 149.188,19.8343 147.188,22.8343 143.5,24.5C 140.167,25.8333 137.833,28.1667 136.5,31.5C 135.5,31.5 134.5,31.5 133.5,31.5C 138.5,25.8333 143.833,20.5 149.5,15.5 Z"/></g>
<g><path style="opacity:1" fill="#eb6503" d="M 150.5,96.5 C 150.5,96.1667 150.5,95.8333 150.5,95.5C 150.5,74.1667 150.5,52.8333 150.5,31.5C 152.288,31.7852 153.955,31.4519 155.5,30.5C 153.244,29.5791 152.244,27.9124 152.5,25.5C 148.818,25.5549 145.485,26.5549 142.5,28.5C 142.433,27.0413 142.766,25.7079 143.5,24.5C 147.188,22.8343 149.188,19.8343 149.5,15.5C 150.5,15.5 151.5,15.5 152.5,15.5C 153.922,15.2504 154.922,14.417 155.5,13C 159.167,12.3333 162.833,12.3333 166.5,13C 167.126,13.7504 167.626,14.5838 168,15.5C 168.667,42.1667 168.667,68.8333 168,95.5C 162.259,96.4749 156.425,96.8082 150.5,96.5 Z"/></g>
<g><path style="opacity:1" fill="#fefefd" d="M 144.5,75.5 C 131.167,75.5 117.833,75.5 104.5,75.5C 104.5,61.1667 104.5,46.8333 104.5,32.5C 112.5,32.5 120.5,32.5 128.5,32.5C 128.435,32.9382 128.601,33.2716 129,33.5C 129.333,32.8333 129.667,32.1667 130,31.5C 131.074,32.6184 132.24,33.6184 133.5,34.5C 137.713,35.1945 141.879,35.8612 146,36.5C 146.167,43 146.333,49.5 146.5,56C 146.497,62.8693 145.83,69.3693 144.5,75.5 Z"/></g>
<g><path style="opacity:1" fill="#f6ecd8" d="M 169.5,9.5 C 164.489,9.33407 159.489,9.50074 154.5,10C 152.627,11.7038 150.96,13.5372 149.5,15.5C 143.833,20.5 138.5,25.8333 133.5,31.5C 137.97,32.4861 142.637,32.8195 147.5,32.5C 147.5,53.5 147.5,74.5 147.5,95.5C 146.833,96.5 146.167,97.5 145.5,98.5C 145.825,90.9809 145.492,83.6476 144.5,76.5C 144.5,76.1667 144.5,75.8333 144.5,75.5C 145.83,69.3693 146.497,62.8693 146.5,56C 146.333,49.5 146.167,43 146,36.5C 141.879,35.8612 137.713,35.1945 133.5,34.5C 132.24,33.6184 131.074,32.6184 130,31.5C 129.667,32.1667 129.333,32.8333 129,33.5C 128.601,33.2716 128.435,32.9382 128.5,32.5C 128.5,32.1667 128.5,31.8333 128.5,31.5C 135.167,24.5 141.833,17.5 148.5,10.5C 149.167,10.5 149.5,10.1667 149.5,9.5C 156.316,8.31463 162.983,8.31463 169.5,9.5 Z"/></g>
<g><path style="opacity:1" fill="#fbd0aa" d="M 133.5,31.5 C 134.5,31.5 135.5,31.5 136.5,31.5C 140.5,31.5 144.5,31.5 148.5,31.5C 148.5,53.8333 148.5,76.1667 148.5,98.5C 154.833,98.5 161.167,98.5 167.5,98.5C 168.167,98.5 168.833,98.5 169.5,98.5C 162.352,99.4916 155.019,99.825 147.5,99.5C 147.5,98.1667 147.5,96.8333 147.5,95.5C 147.5,74.5 147.5,53.5 147.5,32.5C 142.637,32.8195 137.97,32.4861 133.5,31.5 Z"/></g>
<g><path style="opacity:1" fill="#c17033" d="M 148.5,31.5 C 149.167,52.8333 149.833,74.1667 150.5,95.5C 150.5,95.8333 150.5,96.1667 150.5,96.5C 155.975,97.4889 161.642,97.8222 167.5,97.5C 167.5,97.8333 167.5,98.1667 167.5,98.5C 161.167,98.5 154.833,98.5 148.5,98.5C 148.5,76.1667 148.5,53.8333 148.5,31.5 Z"/></g>
<g><path style="opacity:1" fill="#d76311" d="M 143.5,24.5 C 142.766,25.7079 142.433,27.0413 142.5,28.5C 145.485,26.5549 148.818,25.5549 152.5,25.5C 152.244,27.9124 153.244,29.5791 155.5,30.5C 153.955,31.4519 152.288,31.7852 150.5,31.5C 150.5,52.8333 150.5,74.1667 150.5,95.5C 149.833,74.1667 149.167,52.8333 148.5,31.5C 144.5,31.5 140.5,31.5 136.5,31.5C 137.833,28.1667 140.167,25.8333 143.5,24.5 Z"/></g>
<g><path style="opacity:1" fill="#b6b2b2" d="M 128.5,31.5 C 128.5,31.8333 128.5,32.1667 128.5,32.5C 120.5,32.5 112.5,32.5 104.5,32.5C 104.5,46.8333 104.5,61.1667 104.5,75.5C 117.833,75.5 131.167,75.5 144.5,75.5C 144.5,75.8333 144.5,76.1667 144.5,76.5C 130.833,76.5 117.167,76.5 103.5,76.5C 103.5,61.5 103.5,46.5 103.5,31.5C 111.833,31.5 120.167,31.5 128.5,31.5 Z"/></g>
<g><path style="opacity:1" fill="#666561" d="M 103.5,76.5 C 117.167,76.5 130.833,76.5 144.5,76.5C 145.492,83.6476 145.825,90.9809 145.5,98.5C 145.167,98.5 144.833,98.5 144.5,98.5C 144.5,98.1667 144.5,97.8333 144.5,97.5C 144.5,90.8333 144.5,84.1667 144.5,77.5C 130.656,77.829 116.99,77.4957 103.5,76.5 Z"/></g>
<g><path style="opacity:1" fill="#666666" d="M 32.5,116.5 C 33.4486,115.848 34.6153,115.514 36,115.5C 38.0081,115.307 39.5081,115.974 40.5,117.5C 37.9039,116.735 35.2372,116.401 32.5,116.5 Z"/></g>
<g><path style="opacity:1" fill="#141212" d="M 65.5,121.5 C 66.1576,125.305 66.4909,128.972 66.5,132.5C 66.5852,133.995 65.9185,134.995 64.5,135.5C 60.2512,135.348 55.9178,135.182 51.5,135C 50.4734,134.487 49.4734,133.987 48.5,133.5C 46.4121,129.641 46.0788,125.641 47.5,121.5C 51.1555,115.386 56.1555,114.053 62.5,117.5C 63.9095,118.569 64.9095,119.903 65.5,121.5 Z"/></g>
<g><path style="opacity:1" fill="#0b090a" d="M 148.5,124.5 C 148.5,125.5 148.5,126.5 148.5,127.5C 145.5,127.5 142.5,127.5 139.5,127.5C 139.5,129.167 139.5,130.833 139.5,132.5C 143.167,132.5 146.833,132.5 150.5,132.5C 150.5,133.5 150.5,134.5 150.5,135.5C 145.833,135.5 141.167,135.5 136.5,135.5C 136.5,129.167 136.5,122.833 136.5,116.5C 140.833,116.5 145.167,116.5 149.5,116.5C 149.5,117.5 149.5,118.5 149.5,119.5C 146.167,119.5 142.833,119.5 139.5,119.5C 139.5,121.167 139.5,122.833 139.5,124.5C 142.5,124.5 145.5,124.5 148.5,124.5 Z"/></g>
<g><path style="opacity:1" fill="#6f6f6d" d="M 74.5,116.5 C 73.5,116.5 72.5,116.5 71.5,116.5C 71.2598,122.227 71.5931,127.894 72.5,133.5C 71.8826,133.389 71.3826,133.056 71,132.5C 70.5006,126.843 70.3339,121.176 70.5,115.5C 72.099,115.232 73.4324,115.566 74.5,116.5 Z"/></g>
<g><path style="opacity:1" fill="#828282" d="M 83.5,116.5 C 84.9187,115.549 86.5853,115.216 88.5,115.5C 88.8195,120.363 88.4861,125.03 87.5,129.5C 87.5,125.167 87.5,120.833 87.5,116.5C 86.1667,116.5 84.8333,116.5 83.5,116.5 Z"/></g>
<g><path style="opacity:1" fill="#d6702d" d="M 163.5,130.5 C 162.735,127.904 162.401,125.237 162.5,122.5C 166.001,115.368 171.334,113.701 178.5,117.5C 179.5,119.167 180.833,120.5 182.5,121.5C 183.731,124.538 183.564,127.538 182,130.5C 180.315,132.017 178.815,133.684 177.5,135.5C 171.169,137.974 166.503,136.308 163.5,130.5 Z"/></g>
<g><path style="opacity:1" fill="#e5e4e3" d="M 53.5,119.5 C 60.5224,118.848 63.1891,121.848 61.5,128.5C 59.7505,125.873 58.0839,125.873 56.5,128.5C 57.1667,129.5 57.8333,130.5 58.5,131.5C 57.6667,131.833 56.8333,132.167 56,132.5C 49.808,129.237 48.9746,124.904 53.5,119.5 Z"/></g>
<g><path style="opacity:1" fill="#fce2c7" d="M 176.5,121.5 C 178.763,123.766 179.096,126.433 177.5,129.5C 169.914,133.422 166.414,131.088 167,122.5C 169.995,119.021 173.161,118.688 176.5,121.5 Z"/></g>
<g><path style="opacity:1" fill="#72706f" d="M 126.5,116.5 C 122.833,116.5 119.167,116.5 115.5,116.5C 115.5,122.833 115.5,129.167 115.5,135.5C 116.5,135.5 117.5,135.5 118.5,135.5C 118.205,133.265 118.539,131.265 119.5,129.5C 119.5,131.833 119.5,134.167 119.5,136.5C 117.833,136.5 116.167,136.5 114.5,136.5C 114.5,129.5 114.5,122.5 114.5,115.5C 118.702,115.183 122.702,115.517 126.5,116.5 Z"/></g>
<g><path style="opacity:1" fill="#1a1919" d="M 32.5,116.5 C 35.2372,116.401 37.9039,116.735 40.5,117.5C 42.1054,118.006 42.4387,118.673 41.5,119.5C 39.568,120.653 37.568,120.653 35.5,119.5C 33.9996,119.453 32.9996,120.119 32.5,121.5C 35.6816,123.429 38.8482,125.429 42,127.5C 42.4955,129.473 42.6621,131.473 42.5,133.5C 37.6102,136.299 32.9435,136.132 28.5,133C 28.6135,131.72 29.2801,130.887 30.5,130.5C 32.8511,132.229 35.5178,132.896 38.5,132.5C 38.5,131.167 38.5,129.833 38.5,128.5C 30.6409,129.477 27.4743,126.143 29,118.5C 29.8159,117.177 30.9826,116.511 32.5,116.5 Z"/></g>
<g><path style="opacity:1" fill="#848383" d="M 148.5,124.5 C 145.5,124.5 142.5,124.5 139.5,124.5C 139.5,122.833 139.5,121.167 139.5,119.5C 142.833,119.5 146.167,119.5 149.5,119.5C 149.5,118.5 149.5,117.5 149.5,116.5C 145.167,116.5 140.833,116.5 136.5,116.5C 136.5,122.833 136.5,129.167 136.5,135.5C 141.167,135.5 145.833,135.5 150.5,135.5C 145.695,136.487 140.695,136.821 135.5,136.5C 135.5,129.5 135.5,122.5 135.5,115.5C 140.5,115.5 145.5,115.5 150.5,115.5C 150.5,117.167 150.5,118.833 150.5,120.5C 147.167,120.5 143.833,120.5 140.5,120.5C 140.5,121.5 140.5,122.5 140.5,123.5C 143.385,123.194 146.052,123.527 148.5,124.5 Z"/></g>
<g><path style="opacity:1" fill="#d86623" d="M 191.5,116.5 C 193.25,117.659 194.25,119.326 194.5,121.5C 194.414,122.496 194.748,123.329 195.5,124C 194.552,124.483 193.552,124.649 192.5,124.5C 191.518,127.962 191.185,131.629 191.5,135.5C 190.167,135.5 188.833,135.5 187.5,135.5C 187.5,129.167 187.5,122.833 187.5,116.5C 188.833,116.5 190.167,116.5 191.5,116.5 Z"/></g>
<g><path style="opacity:1" fill="#f8c89e" d="M 204.5,135.5 C 204.5,129.167 204.5,122.833 204.5,116.5C 203.167,116.5 201.833,116.5 200.5,116.5C 200.82,119.898 200.487,123.232 199.5,126.5C 198.016,125.533 197.016,124.2 196.5,122.5C 197.5,122.5 198.5,122.5 199.5,122.5C 199.5,120.167 199.5,117.833 199.5,115.5C 201.5,115.5 203.5,115.5 205.5,115.5C 205.824,122.354 205.491,129.021 204.5,135.5 Z"/></g>
<g><path style="opacity:1" fill="#191718" d="M 99.5,115.5 C 100.978,115.238 102.311,115.571 103.5,116.5C 106.29,122.583 108.957,128.75 111.5,135C 108.756,135.628 106.756,134.628 105.5,132C 102.5,131.333 99.5,131.333 96.5,132C 95.6634,133.011 95.33,134.178 95.5,135.5C 94.1266,135.657 92.7932,135.49 91.5,135C 93.6864,128.267 96.353,121.767 99.5,115.5 Z"/></g>
<g><path style="opacity:1" fill="#d2cfd0" d="M 100.5,121.5 C 102.614,122.784 103.614,124.784 103.5,127.5C 102.167,127.5 100.833,127.5 99.5,127.5C 99.5172,125.435 99.8505,123.435 100.5,121.5 Z"/></g>
<g><path style="opacity:1" fill="#121010" d="M 126.5,116.5 C 132.766,119.976 133.099,124.143 127.5,129C 128.64,130.973 129.973,132.807 131.5,134.5C 129.833,135.833 128.167,135.833 126.5,134.5C 125.129,131.362 122.796,129.696 119.5,129.5C 118.539,131.265 118.205,133.265 118.5,135.5C 117.5,135.5 116.5,135.5 115.5,135.5C 115.5,129.167 115.5,122.833 115.5,116.5C 119.167,116.5 122.833,116.5 126.5,116.5 Z"/></g>
<g><path style="opacity:1" fill="#5e5c5a" d="M 125.5,120.5 C 123.5,120.5 121.5,120.5 119.5,120.5C 119.5,122.167 119.5,123.833 119.5,125.5C 121.5,125.5 123.5,125.5 125.5,125.5C 123.393,126.468 121.059,126.802 118.5,126.5C 118.5,124.167 118.5,121.833 118.5,119.5C 121.059,119.198 123.393,119.532 125.5,120.5 Z"/></g>
<g><path style="opacity:1" fill="#eaeae8" d="M 125.5,120.5 C 128.048,122.038 128.048,123.704 125.5,125.5C 123.5,125.5 121.5,125.5 119.5,125.5C 119.5,123.833 119.5,122.167 119.5,120.5C 121.5,120.5 123.5,120.5 125.5,120.5 Z"/></g>
<g><path style="opacity:1" fill="#656563" d="M 65.5,121.5 C 67.0265,122.492 67.6932,123.992 67.5,126C 67.2115,128.187 66.8782,130.354 66.5,132.5C 66.4909,128.972 66.1576,125.305 65.5,121.5 Z"/></g>
<g><path style="opacity:1" fill="#f7f9f6" d="M 176.5,121.5 C 177.45,124.135 177.45,126.469 176.5,128.5C 171.315,131.946 168.815,130.613 169,124.5C 171.237,122.796 173.737,121.796 176.5,121.5 Z"/></g>
<g><path style="opacity:1" fill="#d98c5b" d="M 223.5,116.5 C 219.167,116.5 214.833,116.5 210.5,116.5C 210.5,122.833 210.5,129.167 210.5,135.5C 210.167,135.5 209.833,135.5 209.5,135.5C 209.5,128.833 209.5,122.167 209.5,115.5C 214.363,115.181 219.03,115.514 223.5,116.5 Z"/></g>
<g><path style="opacity:1" fill="#d4d2d2" d="M 41.5,119.5 C 39.4648,123.763 40.7981,126.096 45.5,126.5C 45.1201,124.302 45.7868,122.635 47.5,121.5C 46.0788,125.641 46.4121,129.641 48.5,133.5C 46.7411,133.954 44.7411,133.954 42.5,133.5C 42.6621,131.473 42.4955,129.473 42,127.5C 38.8482,125.429 35.6816,123.429 32.5,121.5C 32.9996,120.119 33.9996,119.453 35.5,119.5C 37.568,120.653 39.568,120.653 41.5,119.5 Z"/></g>
<g><path style="opacity:1" fill="#f8be90" d="M 162.5,122.5 C 162.401,125.237 162.735,127.904 163.5,130.5C 161.974,129.508 161.307,128.008 161.5,126C 161.514,124.615 161.848,123.449 162.5,122.5 Z"/></g>
<g><path style="opacity:1" fill="#ce7230" d="M 204.5,135.5 C 202.302,135.88 200.635,135.213 199.5,133.5C 200.833,133.5 202.167,133.5 203.5,133.5C 203.828,128.125 203.495,122.792 202.5,117.5C 201.513,120.768 201.18,124.102 201.5,127.5C 200.167,127.5 198.833,127.5 197.5,127.5C 197.5,128.5 197.5,129.5 197.5,130.5C 196.138,128.3 194.471,126.3 192.5,124.5C 193.552,124.649 194.552,124.483 195.5,124C 194.748,123.329 194.414,122.496 194.5,121.5C 195.167,121.833 195.833,122.167 196.5,122.5C 197.016,124.2 198.016,125.533 199.5,126.5C 200.487,123.232 200.82,119.898 200.5,116.5C 201.833,116.5 203.167,116.5 204.5,116.5C 204.5,122.833 204.5,129.167 204.5,135.5 Z"/></g>
<g><path style="opacity:1" fill="#999798" d="M 148.5,124.5 C 149.249,125.531 149.915,126.698 150.5,128C 147.183,128.498 143.85,128.665 140.5,128.5C 140.5,129.5 140.5,130.5 140.5,131.5C 144.042,131.187 147.375,131.521 150.5,132.5C 146.833,132.5 143.167,132.5 139.5,132.5C 139.5,130.833 139.5,129.167 139.5,127.5C 142.5,127.5 145.5,127.5 148.5,127.5C 148.5,126.5 148.5,125.5 148.5,124.5 Z"/></g>
<g><path style="opacity:1" fill="#ebba97" d="M 223.5,119.5 C 220.972,120.166 218.306,120.832 215.5,121.5C 217.813,122.273 220.146,122.94 222.5,123.5C 223.452,125.045 223.785,126.712 223.5,128.5C 220.5,128.5 217.5,128.5 214.5,128.5C 214.5,129.5 214.5,130.5 214.5,131.5C 218.167,131.5 221.833,131.5 225.5,131.5C 225.5,133.167 225.5,134.833 225.5,136.5C 219.974,136.821 214.64,136.488 209.5,135.5C 209.833,135.5 210.167,135.5 210.5,135.5C 214.833,135.5 219.167,135.5 223.5,135.5C 223.5,134.5 223.5,133.5 223.5,132.5C 220.167,132.5 216.833,132.5 213.5,132.5C 213.5,130.833 213.5,129.167 213.5,127.5C 216.5,127.5 219.5,127.5 222.5,127.5C 222.5,126.5 222.5,125.5 222.5,124.5C 219.813,124.664 217.146,124.497 214.5,124C 213.62,122.644 213.286,121.144 213.5,119.5C 216.833,119.5 220.167,119.5 223.5,119.5 Z"/></g>
<g><path style="opacity:1" fill="#df6114" d="M 199.5,133.5 C 198.833,132.5 198.167,131.5 197.5,130.5C 197.5,129.5 197.5,128.5 197.5,127.5C 198.833,127.5 200.167,127.5 201.5,127.5C 201.18,124.102 201.513,120.768 202.5,117.5C 203.495,122.792 203.828,128.125 203.5,133.5C 202.167,133.5 200.833,133.5 199.5,133.5 Z"/></g>
<g><path style="opacity:1" fill="#d3621d" d="M 223.5,116.5 C 224.833,117.5 224.833,118.5 223.5,119.5C 220.167,119.5 216.833,119.5 213.5,119.5C 213.286,121.144 213.62,122.644 214.5,124C 217.146,124.497 219.813,124.664 222.5,124.5C 222.5,125.5 222.5,126.5 222.5,127.5C 219.5,127.5 216.5,127.5 213.5,127.5C 213.5,129.167 213.5,130.833 213.5,132.5C 216.833,132.5 220.167,132.5 223.5,132.5C 223.5,133.5 223.5,134.5 223.5,135.5C 219.167,135.5 214.833,135.5 210.5,135.5C 210.5,129.167 210.5,122.833 210.5,116.5C 214.833,116.5 219.167,116.5 223.5,116.5 Z"/></g>
<g><path style="opacity:1" fill="#f2c19c" d="M 191.5,116.5 C 190.167,116.5 188.833,116.5 187.5,116.5C 187.5,122.833 187.5,129.167 187.5,135.5C 186.509,129.021 186.176,122.354 186.5,115.5C 188.415,115.216 190.081,115.549 191.5,116.5 Z"/></g>
<g><path style="opacity:1" fill="#100f0f" d="M 74.5,116.5 C 74.3343,120.846 74.501,125.179 75,129.5C 77.367,132.932 80.0337,133.265 83,130.5C 83.4992,125.845 83.6658,121.179 83.5,116.5C 84.8333,116.5 86.1667,116.5 87.5,116.5C 87.5,120.833 87.5,125.167 87.5,129.5C 87.5479,132.292 86.2146,134.125 83.5,135C 79.5252,135.987 75.8585,135.487 72.5,133.5C 71.5931,127.894 71.2598,122.227 71.5,116.5C 72.5,116.5 73.5,116.5 74.5,116.5 Z"/></g>
<g><path style="opacity:1" fill="#9b9b9b" d="M 98.5,141.5 C 101.898,141.18 105.232,141.513 108.5,142.5C 106.955,143.452 105.288,143.785 103.5,143.5C 103.167,156.833 102.833,156.833 102.5,143.5C 100.517,143.843 99.1834,143.176 98.5,141.5 Z"/></g>
<g><path style="opacity:1" fill="#9f9ea0" d="M 167.5,141.5 C 170.898,141.18 174.232,141.513 177.5,142.5C 176.311,143.429 174.978,143.762 173.5,143.5C 172.833,158.167 172.167,158.167 171.5,143.5C 169.517,143.843 168.183,143.176 167.5,141.5 Z"/></g>
<g><path style="opacity:1" fill="#9d9d9d" d="M 31.5,153.5 C 28.8619,152.758 27.5286,150.925 27.5,148C 28.42,142.081 31.7533,140.248 37.5,142.5C 38.5063,143.396 38.5063,144.062 37.5,144.5C 33.1914,142.519 30.1914,143.686 28.5,148C 29.3393,149.984 30.3393,151.817 31.5,153.5 Z"/></g>
<g><path style="opacity:1" fill="#9b9b9b" d="M 47.5,141.5 C 57.8205,141.421 60.1538,145.588 54.5,154C 52.8333,154.667 51.1667,154.667 49.5,154C 55.5356,152.445 56.869,149.112 53.5,144C 49.2288,142.487 46.8954,143.987 46.5,148.5C 49.4793,153.581 48.9793,154.248 45,150.5C 44.3333,148.833 44.3333,147.167 45,145.5C 46.0848,144.264 46.9181,142.931 47.5,141.5 Z"/></g>
<g><path style="opacity:1" fill="#969697" d="M 214.5,142.5 C 215.239,142.369 215.906,142.536 216.5,143C 218.293,145.795 220.46,148.295 223,150.5C 223.333,147.833 223.667,145.167 224,142.5C 225.905,155.97 223.405,156.97 216.5,145.5C 215.686,147.766 215.186,150.1 215,152.5C 214.667,152.167 214.333,151.833 214,151.5C 214.29,148.587 214.457,145.587 214.5,142.5 Z"/></g>
<g><path style="opacity:1" fill="#a0a0a0" d="M 84.5,141.5 C 86.604,141.201 88.604,141.534 90.5,142.5C 88.9547,143.452 87.288,143.785 85.5,143.5C 85.5,144.5 85.5,145.5 85.5,146.5C 88.8434,146.501 91.1767,148.001 92.5,151C 90.2004,155.025 87.2004,155.525 83.5,152.5C 85.3435,152.245 87.3435,152.078 89.5,152C 89.9574,151.586 90.2907,151.086 90.5,150.5C 88.5101,149.127 86.3434,148.127 84,147.5C 83.5099,145.455 83.6765,143.455 84.5,141.5 Z"/></g>
<g><path style="opacity:1" fill="#a1a1a1" d="M 123.5,143.5 C 124.649,143.791 125.316,144.624 125.5,146C 124.524,148.118 123.69,150.285 123,152.5C 121.736,150.393 119.903,149.393 117.5,149.5C 117.762,150.978 117.429,152.311 116.5,153.5C 115.509,149.555 115.176,145.555 115.5,141.5C 118.698,140.964 121.365,141.631 123.5,143.5 Z"/></g>
<g><path style="opacity:1" fill="#f9f9f9" d="M 123.5,143.5 C 123.241,147.068 121.241,148.401 117.5,147.5C 117.5,146.167 117.5,144.833 117.5,143.5C 119.5,143.5 121.5,143.5 123.5,143.5 Z"/></g>
<g><path style="opacity:1" fill="#a3a3a3" d="M 151.5,143.5 C 152.239,143.369 152.906,143.536 153.5,144C 152.565,146.381 152.232,148.881 152.5,151.5C 155.627,152.391 158.627,152.725 161.5,152.5C 155.792,155.819 151.792,154.319 149.5,148C 150.044,146.415 150.711,144.915 151.5,143.5 Z"/></g>
<g><path style="opacity:1" fill="#9b9a9b" d="M 203.5,143.5 C 204.496,143.414 205.329,143.748 206,144.5C 207.257,153.127 203.757,155.96 195.5,153C 191.829,146.861 193.496,143.027 200.5,141.5C 202.03,141.64 203.03,142.307 203.5,143.5 Z"/></g>
<g><path style="opacity:1" fill="#f5f5f5" d="M 203.5,143.5 C 204.703,146.173 204.703,148.84 203.5,151.5C 200.658,154.283 198.158,153.95 196,150.5C 195.004,144.666 197.504,142.333 203.5,143.5 Z"/></g>
<g><path style="opacity:1" fill="#a6a6a6" d="M 64.5,141.5 C 65.675,141.281 66.675,141.614 67.5,142.5C 72.2839,151.724 74.2839,151.391 73.5,141.5C 74.5,141.5 75.5,141.5 76.5,141.5C 76.5,145.833 76.5,150.167 76.5,154.5C 72.6087,152.447 69.4421,149.447 67,145.5C 66.8214,148.553 66.3214,151.553 65.5,154.5C 64.5078,150.217 64.1744,145.884 64.5,141.5 Z"/></g>
<g><path style="opacity:1" fill="#a6a6a6" d="M 141.5,141.5 C 142.765,142.514 143.431,144.014 143.5,146C 144.134,152.905 141.134,155.572 134.5,154C 132.544,150.405 132.044,146.572 133,142.5C 133.333,144.833 133.667,147.167 134,149.5C 135.508,153.674 137.841,154.341 141,151.5C 141.498,148.183 141.665,144.85 141.5,141.5 Z"/></g>
<g><path style="opacity:1" fill="#8d8c8c" d="M 184.5,142.5 C 185.794,144.048 186.461,146.048 186.5,148.5C 186.167,150.5 185.833,152.5 185.5,154.5C 184.509,150.555 184.176,146.555 184.5,142.5 Z"/></g>
<g><path style="opacity:1" fill="#999999" d="M 31.5,153.5 C 33.8273,153.753 35.8273,153.086 37.5,151.5C 37.8333,151.833 38.1667,152.167 38.5,152.5C 36.2712,154.553 33.9379,154.886 31.5,153.5 Z"/></g>
</svg>
