<?xml version="1.0" ?><svg fill="none" height="24" viewBox="0 0 24 24" width="24" xmlns="http://www.w3.org/2000/svg"><path d="M12.0103 7.23093L13.5822 7.99883V10H10.5V7.98608L12.0103 7.23093Z" fill="#443C67"/><path clip-rule="evenodd" d="M13.473 22.1049C15.7837 18.9974 20 12.7255 20 8.33333C20 4.28325 16.4183 1 12 1C7.58172 1 4 4.28325 4 8.33333C4 12.7255 8.21626 18.9974 10.527 22.1049C11.2731 23.1083 12.7269 23.1083 13.473 22.1049ZM8.5 7.36804C8.5 6.98927 8.71401 6.643 9.05279 6.47361L11.558 5.22103C11.8366 5.08172 12.1643 5.08021 12.4442 5.21696L15.0211 6.47591C15.3645 6.64363 15.5822 6.99232 15.5822 7.37442V11C15.5822 11.5523 15.1345 12 14.5822 12H9.5C8.94771 12 8.5 11.5523 8.5 11V7.36804Z" fill="#443C67" fill-rule="evenodd"/></svg>