<svg id="svg" version="1.1" xmlns="http://www.w3.org/2000/svg" xmlns:xlink="http://www.w3.org/1999/xlink" width="50" height="50" viewBox="0, 0, 400,400"><g id="svgg"><path id="path0" d="M0.000 200.000 L 0.000 400.000 200.000 400.000 L 400.000 400.000 400.000 200.000 L 400.000 0.000 200.000 0.000 L 0.000 0.000 0.000 200.000 M214.150 158.319 C 214.258 158.494,211.509 161.460,208.041 164.909 L 201.735 171.181 194.567 171.290 L 187.400 171.400 187.400 183.800 L 187.400 196.200 198.967 196.306 C 206.817 196.378,210.708 196.557,211.077 196.864 C 211.500 197.215,211.596 198.648,211.510 203.357 L 211.400 209.400 192.800 209.400 L 174.200 209.400 174.096 184.200 C 174.039 170.340,174.079 158.775,174.184 158.500 C 174.404 157.925,213.796 157.747,214.150 158.319 M225.554 158.545 C 225.882 158.940,225.978 165.997,225.903 184.245 L 225.800 209.400 219.300 209.510 L 212.800 209.620 212.800 190.653 C 212.800 173.726,212.732 171.659,212.167 171.443 C 211.819 171.309,209.839 171.200,207.767 171.200 C 205.695 171.200,204.000 171.082,204.000 170.938 C 204.000 170.793,206.875 167.823,210.389 164.338 L 216.778 158.000 220.940 158.000 C 223.964 158.000,225.226 158.149,225.554 158.545 M150.164 219.759 C 153.115 220.992,152.017 223.538,149.001 222.454 C 147.668 221.975,147.111 221.929,146.767 222.273 C 146.175 222.865,146.637 223.600,147.600 223.600 C 148.014 223.600,148.464 223.780,148.600 224.000 C 148.736 224.220,149.170 224.400,149.565 224.400 C 152.038 224.400,153.240 228.179,151.435 230.278 C 149.791 232.189,143.200 231.499,143.200 229.416 C 143.200 228.197,144.713 227.451,145.776 228.147 C 147.010 228.956,149.200 229.021,149.200 228.249 C 149.200 227.494,148.498 227.025,146.518 226.459 C 144.228 225.805,143.598 225.070,143.613 223.071 C 143.638 219.741,146.571 218.258,150.164 219.759 M163.196 220.046 C 165.700 221.453,167.386 226.054,165.931 227.509 C 165.572 227.868,165.573 228.222,165.934 229.015 C 166.563 230.396,164.747 232.187,163.739 231.179 C 163.527 230.967,162.789 231.001,161.937 231.262 C 156.427 232.953,151.785 227.477,154.467 222.450 C 156.047 219.492,160.183 218.352,163.196 220.046 M170.591 219.700 C 170.683 219.975,170.820 221.847,170.896 223.859 C 171.042 227.726,171.482 228.800,172.917 228.800 C 174.748 228.800,175.200 227.763,175.200 223.565 C 175.200 219.355,175.549 218.749,177.600 219.400 C 178.494 219.684,178.809 226.471,178.025 228.536 C 176.769 231.837,171.876 232.614,169.199 229.937 C 168.024 228.762,167.284 220.449,168.267 219.467 C 168.727 219.007,170.417 219.176,170.591 219.700 M187.269 219.862 C 187.671 220.226,188.000 220.845,188.000 221.238 C 188.000 221.631,188.160 222.052,188.356 222.173 C 188.551 222.294,188.830 222.864,188.974 223.440 C 189.119 224.017,189.610 225.323,190.065 226.344 C 192.442 231.672,192.407 231.200,190.427 231.200 C 189.146 231.200,188.802 231.033,188.573 230.300 C 187.937 228.262,183.819 228.037,183.078 230.000 C 182.684 231.042,182.425 231.200,181.112 231.200 C 179.629 231.200,179.174 230.654,179.928 229.780 C 180.109 229.571,180.769 228.140,181.395 226.600 C 184.570 218.791,185.238 218.024,187.269 219.862 M200.440 219.657 C 203.581 220.711,204.528 224.024,202.356 226.356 C 201.385 227.397,201.401 227.574,202.600 229.200 C 203.943 231.020,203.879 231.201,201.900 231.195 C 200.246 231.190,198.400 229.508,198.400 228.006 C 198.400 227.783,197.950 227.600,197.400 227.600 C 196.480 227.600,196.400 227.745,196.400 229.424 L 196.400 231.248 194.900 231.124 L 193.400 231.000 193.288 225.655 C 193.213 222.056,193.327 220.129,193.637 219.755 C 194.209 219.066,198.496 219.004,200.440 219.657 M213.767 219.443 C 214.141 219.586,214.400 220.156,214.400 220.835 C 214.400 222.142,213.948 222.329,210.400 222.496 C 207.046 222.654,207.333 223.733,210.800 224.000 C 213.393 224.199,213.400 224.203,213.525 225.500 L 213.651 226.800 211.049 226.800 C 208.378 226.800,207.821 227.067,208.235 228.148 C 208.416 228.618,209.214 228.796,211.537 228.884 C 214.508 228.997,214.600 229.030,214.596 230.000 L 214.592 231.000 209.896 231.113 L 205.200 231.225 205.200 225.446 C 205.200 221.197,205.332 219.613,205.700 219.465 C 206.422 219.173,213.018 219.155,213.767 219.443 M230.400 220.348 C 235.085 223.747,233.393 230.832,227.800 231.234 C 224.983 231.437,224.300 231.205,222.547 229.453 C 217.463 224.368,224.576 216.121,230.400 220.348 M239.972 222.400 C 242.594 225.849,242.735 225.854,242.882 222.500 L 243.000 219.800 244.300 219.675 L 245.600 219.549 245.600 225.400 L 245.600 231.251 244.317 231.125 C 243.335 231.029,242.716 230.577,241.682 229.200 C 238.330 224.736,238.077 224.675,237.918 228.300 L 237.800 231.000 236.500 231.125 L 235.200 231.251 235.200 225.425 L 235.200 219.600 236.522 219.600 C 237.688 219.600,238.092 219.928,239.972 222.400 M257.000 220.800 C 257.000 221.755,256.871 221.809,254.132 222.000 C 251.049 222.215,250.570 222.423,250.938 223.383 C 251.111 223.832,251.754 224.000,253.307 224.000 C 255.532 224.000,256.400 224.469,256.400 225.672 C 256.400 226.455,255.586 226.731,252.800 226.895 C 249.261 227.102,250.312 228.574,254.100 228.717 L 257.200 228.834 257.200 230.030 L 257.200 231.226 252.700 231.113 L 248.200 231.000 248.087 225.821 C 247.940 219.040,247.557 219.551,252.693 219.686 C 256.990 219.800,257.000 219.802,257.000 220.800 M158.600 222.483 C 155.766 224.109,156.663 228.800,159.809 228.800 C 160.864 228.800,160.888 228.761,160.262 228.069 C 158.915 226.580,160.533 224.473,162.002 225.802 C 163.016 226.720,163.351 226.397,163.007 224.833 C 162.529 222.655,160.338 221.487,158.600 222.483 M224.942 222.948 C 222.713 224.866,224.092 228.800,226.994 228.800 C 230.184 228.800,231.356 223.949,228.526 222.460 C 227.199 221.761,226.157 221.903,224.942 222.948 M196.554 222.977 C 196.081 224.209,196.585 224.998,197.929 225.127 C 199.412 225.270,200.400 224.657,200.400 223.594 C 200.400 222.375,196.994 221.829,196.554 222.977 M185.253 224.702 C 184.620 225.884,184.668 226.000,185.800 226.000 C 186.934 226.000,187.039 225.679,186.253 224.604 C 185.723 223.879,185.691 223.883,185.253 224.702 M148.971 235.029 C 149.847 235.905,149.861 235.898,147.324 235.846 C 145.266 235.804,144.991 235.900,144.453 236.845 C 143.152 239.128,145.950 242.037,148.095 240.632 C 148.981 240.052,149.600 240.122,149.600 240.802 C 149.600 241.220,147.668 242.000,146.635 242.000 C 143.285 242.000,141.802 236.520,144.696 234.834 C 145.771 234.208,148.264 234.322,148.971 235.029 M159.345 235.455 C 162.432 238.541,158.584 243.712,154.965 241.341 C 153.372 240.296,152.658 238.585,153.183 237.067 C 154.130 234.329,157.372 233.481,159.345 235.455 M167.796 237.195 C 169.530 239.556,170.000 239.467,170.000 236.776 C 170.000 235.263,170.144 234.800,170.616 234.800 C 171.131 234.800,171.213 235.344,171.116 238.096 C 170.976 242.066,170.432 242.432,168.502 239.858 C 167.789 238.907,166.844 237.711,166.402 237.203 L 165.600 236.278 165.600 238.939 C 165.600 240.446,165.427 241.600,165.200 241.600 C 164.729 241.600,164.733 241.624,164.714 238.800 C 164.679 233.606,165.028 233.424,167.796 237.195 M179.367 234.643 C 180.591 235.112,179.981 235.600,178.171 235.600 C 175.348 235.600,175.795 236.793,179.071 238.004 C 181.259 238.812,180.802 241.581,178.422 241.933 C 177.463 242.075,175.200 241.292,175.200 240.818 C 175.200 240.120,175.813 240.048,176.717 240.640 C 177.775 241.333,179.600 240.799,179.600 239.797 C 179.600 239.326,177.951 238.400,177.113 238.400 C 176.432 238.400,175.200 237.156,175.200 236.470 C 175.200 234.911,177.471 233.915,179.367 234.643 M189.777 235.000 C 189.765 235.220,189.225 235.494,188.577 235.608 C 187.408 235.814,187.400 235.835,187.400 238.574 C 187.400 240.425,187.236 241.387,186.900 241.500 C 186.529 241.623,186.400 240.882,186.400 238.633 C 186.400 235.684,186.373 235.600,185.424 235.600 C 184.405 235.600,183.826 235.107,184.294 234.639 C 184.718 234.216,189.803 234.550,189.777 235.000 M198.869 235.062 C 199.885 235.982,199.841 238.012,198.800 238.284 C 198.054 238.479,197.632 239.600,198.304 239.600 C 198.906 239.600,199.680 241.280,199.267 241.693 C 199.001 241.959,198.555 241.609,197.934 240.651 C 196.657 238.681,194.800 238.552,194.800 240.433 C 194.800 241.242,194.628 241.609,194.300 241.500 C 193.635 241.279,193.492 235.124,194.143 234.706 C 195.013 234.147,198.115 234.380,198.869 235.062 M219.626 234.814 C 221.004 235.552,220.456 235.969,218.424 235.728 C 216.035 235.445,215.200 236.071,215.200 238.144 C 215.200 240.242,217.184 241.618,218.818 240.653 C 220.142 239.871,220.924 240.517,219.740 241.414 C 217.495 243.115,214.177 241.194,214.239 238.229 C 214.304 235.096,216.982 233.399,219.626 234.814 M229.712 235.000 C 229.664 235.220,229.169 235.457,228.612 235.527 C 227.631 235.649,227.600 235.745,227.600 238.627 C 227.600 241.003,227.480 241.600,227.000 241.600 C 226.520 241.600,226.400 241.000,226.400 238.600 C 226.400 235.686,226.372 235.600,225.424 235.600 C 224.405 235.600,223.826 235.107,224.294 234.639 C 224.722 234.211,229.811 234.550,229.712 235.000 M234.800 237.976 C 234.800 239.943,234.620 241.664,234.400 241.800 C 234.171 241.942,233.994 241.568,233.987 240.924 C 233.980 240.306,233.922 238.673,233.859 237.295 C 233.795 235.917,233.831 234.702,233.938 234.595 C 234.584 233.950,234.800 234.799,234.800 237.976 M245.273 235.324 C 247.808 237.504,246.220 242.000,242.915 242.000 C 241.927 242.000,241.208 241.670,240.369 240.831 C 236.985 237.446,241.650 232.207,245.273 235.324 M257.200 238.200 C 257.200 242.477,256.902 242.598,254.320 239.370 L 252.200 236.719 252.000 239.028 C 251.667 242.870,250.800 242.296,250.800 238.233 C 250.800 234.084,251.253 233.838,253.494 236.772 C 255.631 239.569,256.000 239.611,256.000 237.054 C 256.000 235.888,256.115 234.818,256.256 234.678 C 256.908 234.025,257.200 235.115,257.200 238.200 M204.800 237.184 C 204.800 239.122,204.964 239.722,205.675 240.384 C 207.520 242.103,208.800 240.855,208.800 237.338 C 208.800 235.270,208.919 234.800,209.445 234.800 C 210.564 234.800,210.051 240.268,208.840 241.248 C 207.200 242.576,205.109 242.085,204.065 240.126 C 203.351 238.785,203.452 234.800,204.200 234.800 C 204.666 234.800,204.800 235.332,204.800 237.184 M241.895 235.477 C 240.001 235.971,239.838 239.145,241.637 240.488 C 243.614 241.964,246.163 239.532,245.225 237.066 C 244.908 236.233,243.127 234.962,242.674 235.246 C 242.633 235.272,242.283 235.376,241.895 235.477 M154.646 236.586 C 153.732 237.981,153.841 238.932,155.055 240.145 C 156.711 241.802,158.390 241.295,159.231 238.884 C 160.203 236.095,156.262 234.119,154.646 236.586 M194.800 236.733 C 194.800 238.222,194.938 238.316,196.703 238.032 C 199.225 237.625,199.161 235.600,196.627 235.600 C 194.888 235.600,194.800 235.654,194.800 236.733 " stroke="none" fill="#fbfbfb" fill-rule="evenodd"></path><path id="path1" d="M174.800 183.800 L 174.800 209.200 192.800 209.200 L 210.800 209.200 210.800 203.200 L 210.800 197.200 199.280 197.200 C 190.853 197.200,187.631 197.071,187.280 196.720 C 186.927 196.367,186.800 192.924,186.800 183.720 L 186.800 171.200 192.900 171.148 C 196.255 171.120,199.503 171.067,200.117 171.030 C 200.986 170.977,202.632 169.565,207.516 164.681 L 213.797 158.400 194.298 158.400 L 174.800 158.400 174.800 183.800 M145.800 220.062 C 142.820 221.692,143.578 225.532,147.006 226.175 C 149.019 226.552,150.322 227.730,149.638 228.554 C 148.999 229.324,147.558 229.381,145.707 228.712 C 144.586 228.306,144.296 228.321,144.001 228.798 C 142.768 230.793,149.228 231.958,150.954 230.051 C 152.921 227.877,151.897 225.637,148.400 224.462 C 146.548 223.841,146.200 223.571,146.200 222.762 C 146.200 221.618,147.942 221.220,149.440 222.021 C 150.191 222.424,150.461 222.396,150.996 221.861 C 152.361 220.496,147.857 218.937,145.800 220.062 M157.148 220.480 C 151.681 223.529,154.412 231.974,160.556 231.017 C 161.460 230.877,162.866 230.725,163.679 230.681 C 165.283 230.593,166.384 229.885,165.635 229.422 C 165.089 229.084,165.064 227.331,165.600 227.000 C 166.269 226.586,166.049 224.567,165.150 222.883 C 163.547 219.880,160.087 218.841,157.148 220.480 M168.400 223.914 C 168.400 228.641,168.717 229.523,170.804 230.602 C 172.965 231.720,176.162 230.940,177.175 229.047 C 177.771 227.933,177.900 220.540,177.333 219.973 C 176.138 218.778,175.600 220.033,175.600 224.020 C 175.600 227.632,175.527 228.006,174.711 228.577 C 172.060 230.434,170.667 228.867,170.400 223.729 C 170.212 220.113,170.145 219.869,169.300 219.741 C 168.414 219.607,168.400 219.672,168.400 223.914 M183.926 221.900 C 183.368 223.165,182.263 225.685,181.471 227.500 L 180.030 230.800 181.176 230.800 C 182.089 230.800,182.407 230.557,182.740 229.600 C 183.146 228.434,183.232 228.400,185.731 228.400 C 188.212 228.400,188.321 228.443,188.800 229.600 C 189.186 230.532,189.549 230.800,190.426 230.800 L 191.555 230.800 190.751 228.900 C 190.308 227.855,189.576 226.190,189.123 225.200 C 188.669 224.210,188.117 222.950,187.896 222.400 C 186.929 220.000,186.630 219.600,185.803 219.600 C 185.137 219.600,184.709 220.125,183.926 221.900 M193.950 220.260 C 193.740 220.513,193.594 222.988,193.625 225.760 L 193.682 230.800 194.818 230.800 C 195.869 230.800,195.963 230.672,196.077 229.100 C 196.264 226.510,197.854 226.452,199.450 228.978 C 200.360 230.418,200.830 230.799,201.700 230.799 C 203.052 230.800,203.061 230.618,201.800 228.964 C 200.571 227.354,200.572 227.230,201.807 226.058 C 203.774 224.192,203.007 220.993,200.400 220.185 C 198.817 219.694,194.377 219.746,193.950 220.260 M205.839 220.243 C 205.743 220.493,205.648 222.970,205.628 225.749 L 205.591 230.800 209.795 230.800 C 213.702 230.800,214.000 230.745,214.000 230.018 C 214.000 229.324,213.672 229.222,211.100 229.118 L 208.200 229.000 208.075 227.700 C 207.938 226.286,208.043 226.243,211.247 226.388 C 212.267 226.434,212.769 226.258,212.948 225.791 C 213.374 224.680,212.855 224.400,210.376 224.400 L 208.000 224.400 208.000 223.000 L 208.000 221.600 210.776 221.600 C 213.478 221.600,214.513 221.153,213.700 220.340 C 213.125 219.765,206.055 219.679,205.839 220.243 M162.023 222.417 C 162.759 222.941,163.265 223.739,163.435 224.646 C 163.777 226.468,163.129 227.222,162.057 226.252 C 160.768 225.085,159.600 226.523,160.800 227.800 C 162.372 229.473,159.569 229.796,157.631 228.164 C 154.103 225.196,158.269 219.744,162.023 222.417 M200.100 222.157 C 202.230 223.774,199.374 226.409,196.633 225.357 C 195.992 225.111,195.710 222.423,196.267 221.867 C 196.730 221.403,199.371 221.603,200.100 222.157 M186.625 224.197 C 187.468 225.973,187.157 226.800,185.646 226.800 C 184.143 226.800,183.965 226.222,184.883 224.322 C 185.781 222.464,185.802 222.462,186.625 224.197 " stroke="none" fill="#140a0a" fill-rule="evenodd"></path><path id="path2" d="M217.469 159.130 C 216.629 159.226,214.919 160.690,210.810 164.832 C 204.616 171.077,204.663 170.719,210.000 170.899 L 213.000 171.000 213.104 189.779 C 213.184 204.192,213.323 208.631,213.704 208.873 C 214.737 209.529,224.692 209.258,224.957 208.567 C 225.529 207.076,225.220 160.581,224.633 159.777 C 224.072 159.010,220.964 158.729,217.469 159.130 M224.566 220.437 C 219.105 223.077,221.023 230.800,227.140 230.800 C 233.091 230.800,234.368 221.560,228.600 220.237 C 227.940 220.086,227.130 219.891,226.800 219.805 C 226.470 219.718,225.465 220.002,224.566 220.437 M235.867 220.267 C 235.097 221.036,235.591 230.800,236.400 230.800 C 237.126 230.800,237.201 230.531,237.206 227.900 C 237.216 223.238,238.433 223.188,241.336 227.731 C 244.395 232.517,245.200 232.073,245.200 225.600 C 245.200 220.667,245.159 220.400,244.400 220.400 C 243.672 220.400,243.600 220.667,243.600 223.376 C 243.600 227.672,243.063 227.676,239.834 223.400 C 237.082 219.755,236.689 219.445,235.867 220.267 M248.800 225.425 L 248.800 230.800 252.800 230.800 C 255.000 230.800,256.797 230.665,256.794 230.500 C 256.775 229.575,255.923 229.230,253.389 229.120 L 250.600 229.000 250.600 227.600 L 250.600 226.200 252.900 226.080 C 254.548 225.994,255.200 225.801,255.200 225.400 C 255.200 224.999,254.548 224.806,252.900 224.720 L 250.600 224.600 250.476 223.100 C 250.391 222.076,250.518 221.592,250.876 221.574 C 257.580 221.242,258.546 220.078,252.132 220.060 L 248.800 220.050 248.800 225.425 M228.495 221.769 C 232.385 222.635,231.181 229.200,227.132 229.200 C 224.023 229.200,222.062 226.524,223.280 223.943 C 223.872 222.687,225.970 221.148,226.791 221.365 C 227.126 221.453,227.893 221.635,228.495 221.769 " stroke="none" fill="#e5640c" fill-rule="evenodd"></path><path id="path3" d="M174.184 158.500 C 174.079 158.775,174.039 170.340,174.096 184.200 L 174.200 209.400 192.800 209.400 L 211.400 209.400 211.510 203.357 C 211.596 198.648,211.500 197.215,211.077 196.864 C 210.708 196.557,206.817 196.378,198.967 196.306 L 187.400 196.200 187.400 183.700 C 187.400 176.825,187.265 171.200,187.100 171.200 C 186.562 171.200,186.739 196.179,187.280 196.720 C 187.631 197.071,190.853 197.200,199.280 197.200 L 210.800 197.200 210.800 203.200 L 210.800 209.200 192.800 209.200 L 174.800 209.200 174.800 183.800 L 174.800 158.400 194.300 158.403 L 213.800 158.407 207.375 164.803 C 203.841 168.321,201.123 171.200,201.333 171.200 C 201.919 171.200,214.375 158.682,214.150 158.319 C 213.796 157.747,174.404 157.925,174.184 158.500 M225.787 184.800 C 225.787 197.010,225.838 202.005,225.900 195.900 C 225.962 189.795,225.962 179.805,225.900 173.700 C 225.838 167.595,225.787 172.590,225.787 184.800 M145.400 219.683 C 142.323 221.448,142.983 225.449,146.518 226.459 C 148.498 227.025,149.200 227.494,149.200 228.249 C 149.200 229.021,147.010 228.956,145.776 228.147 C 144.713 227.451,143.200 228.197,143.200 229.416 C 143.200 231.499,149.791 232.189,151.435 230.278 C 153.240 228.179,152.038 224.400,149.565 224.400 C 149.170 224.400,148.736 224.220,148.600 224.000 C 148.464 223.780,148.014 223.600,147.600 223.600 C 146.637 223.600,146.175 222.865,146.767 222.273 C 147.111 221.929,147.668 221.975,149.001 222.454 C 150.757 223.085,150.786 223.081,151.406 222.135 C 152.733 220.109,148.016 218.183,145.400 219.683 M156.967 220.033 C 150.219 223.310,154.719 233.478,161.937 231.262 C 162.789 231.001,163.527 230.967,163.739 231.179 C 164.747 232.187,166.563 230.396,165.934 229.015 C 165.573 228.222,165.572 227.868,165.931 227.509 C 166.672 226.768,166.479 224.224,165.550 222.483 C 163.928 219.445,160.307 218.411,156.967 220.033 M168.267 219.467 C 167.284 220.449,168.024 228.762,169.199 229.937 C 171.876 232.614,176.769 231.837,178.025 228.536 C 178.809 226.471,178.494 219.684,177.600 219.400 C 175.549 218.749,175.200 219.355,175.200 223.565 C 175.200 227.763,174.748 228.800,172.917 228.800 C 171.482 228.800,171.042 227.726,170.896 223.859 C 170.723 219.293,169.869 217.865,168.267 219.467 M184.516 219.700 C 184.072 220.281,183.002 222.647,181.395 226.600 C 180.769 228.140,180.109 229.571,179.928 229.780 C 179.174 230.654,179.629 231.200,181.112 231.200 C 182.425 231.200,182.684 231.042,183.078 230.000 C 183.819 228.037,187.937 228.262,188.573 230.300 C 188.802 231.033,189.146 231.200,190.427 231.200 C 192.201 231.200,192.207 231.190,191.443 229.460 C 191.136 228.767,190.772 227.859,190.633 227.443 C 190.495 227.026,190.280 226.786,190.157 226.910 C 190.034 227.033,190.298 227.958,190.744 228.967 L 191.555 230.800 190.426 230.800 C 189.549 230.800,189.186 230.532,188.800 229.600 C 188.321 228.443,188.212 228.400,185.731 228.400 C 183.232 228.400,183.146 228.434,182.740 229.600 C 182.407 230.557,182.089 230.800,181.176 230.800 L 180.030 230.800 181.471 227.500 C 184.988 219.442,184.901 219.600,185.803 219.600 C 186.629 219.600,186.898 219.959,187.906 222.400 C 189.020 225.101,189.683 226.450,189.825 226.309 C 190.012 226.122,188.692 222.559,188.285 222.152 C 188.128 221.995,188.000 221.565,188.000 221.195 C 188.000 219.679,185.388 218.558,184.516 219.700 M193.637 219.755 C 193.327 220.129,193.213 222.056,193.288 225.655 L 193.400 231.000 194.900 231.124 L 196.400 231.248 196.400 229.424 C 196.400 227.745,196.480 227.600,197.400 227.600 C 197.950 227.600,198.400 227.783,198.400 228.006 C 198.400 229.508,200.246 231.190,201.900 231.195 C 203.879 231.201,203.943 231.020,202.600 229.200 C 201.401 227.574,201.385 227.397,202.356 226.356 C 203.729 224.881,203.785 221.824,202.458 220.681 C 200.774 219.229,194.610 218.582,193.637 219.755 M205.700 219.465 C 205.332 219.613,205.200 221.197,205.200 225.446 L 205.200 231.225 209.896 231.113 L 214.592 231.000 214.596 230.000 C 214.600 229.033,214.502 228.996,211.612 228.881 C 209.871 228.811,208.480 228.561,208.281 228.281 C 208.040 227.941,207.987 227.976,208.102 228.400 C 208.223 228.848,208.992 229.030,211.132 229.118 C 213.672 229.222,214.000 229.325,214.000 230.018 C 214.000 230.745,213.702 230.800,209.795 230.800 L 205.591 230.800 205.628 225.749 C 205.675 219.287,205.341 219.774,209.661 219.869 C 214.968 219.985,216.008 221.600,210.776 221.600 C 208.822 221.600,208.000 221.748,207.999 222.100 C 207.999 222.595,211.352 222.643,213.500 222.179 C 214.591 221.944,214.796 219.838,213.767 219.443 C 213.018 219.155,206.422 219.173,205.700 219.465 M150.321 220.409 C 151.994 221.428,151.164 222.944,149.440 222.021 C 147.942 221.220,146.200 221.618,146.200 222.762 C 146.200 223.571,146.548 223.841,148.400 224.462 C 151.897 225.637,152.921 227.877,150.954 230.051 C 149.228 231.958,142.768 230.793,144.001 228.798 C 144.296 228.321,144.586 228.306,145.707 228.712 C 147.558 229.381,148.999 229.324,149.638 228.554 C 150.322 227.730,149.019 226.552,147.006 226.175 C 145.137 225.824,144.000 224.646,144.000 223.061 C 144.000 220.037,147.384 218.617,150.321 220.409 M162.796 220.446 C 165.105 221.744,166.987 226.143,165.600 227.000 C 165.064 227.331,165.089 229.084,165.635 229.422 C 166.384 229.885,165.283 230.593,163.679 230.681 C 162.866 230.725,161.460 230.877,160.556 231.017 C 156.026 231.723,152.603 226.794,154.848 222.799 C 156.477 219.901,159.981 218.864,162.796 220.446 M170.400 223.729 C 170.667 228.867,172.060 230.434,174.711 228.577 C 175.527 228.006,175.600 227.632,175.600 224.020 C 175.600 220.033,176.138 218.778,177.333 219.973 C 177.900 220.540,177.771 227.933,177.175 229.047 C 175.728 231.750,170.898 231.789,169.024 229.113 C 167.896 227.502,168.130 219.564,169.300 219.741 C 170.145 219.869,170.212 220.113,170.400 223.729 M200.400 220.185 C 203.007 220.993,203.774 224.192,201.807 226.058 C 200.572 227.230,200.571 227.354,201.800 228.964 C 203.061 230.618,203.052 230.800,201.700 230.799 C 200.830 230.799,200.360 230.418,199.450 228.978 C 197.854 226.452,196.264 226.510,196.077 229.100 C 195.963 230.672,195.869 230.800,194.818 230.800 L 193.682 230.800 193.625 225.760 C 193.594 222.988,193.740 220.513,193.950 220.260 C 194.377 219.746,198.817 219.694,200.400 220.185 M157.436 222.831 C 156.036 224.494,156.020 226.704,157.400 228.000 C 158.590 229.118,158.745 228.737,157.600 227.508 C 155.178 224.908,158.708 220.581,161.532 222.689 C 162.580 223.471,163.562 225.771,163.062 226.271 C 162.921 226.413,162.444 226.202,162.002 225.802 C 160.533 224.473,158.915 226.580,160.262 228.069 C 160.889 228.761,160.862 228.802,159.762 228.832 C 159.123 228.849,158.833 228.957,159.117 229.071 C 159.402 229.185,160.099 229.161,160.668 229.019 L 161.701 228.759 160.829 227.830 C 159.606 226.529,160.746 225.065,162.057 226.252 C 163.129 227.222,163.777 226.468,163.435 224.646 C 162.881 221.692,159.304 220.610,157.436 222.831 M196.267 221.867 C 195.710 222.423,195.992 225.111,196.633 225.357 C 199.374 226.409,202.230 223.774,200.100 222.157 C 199.371 221.603,196.730 221.403,196.267 221.867 M199.767 222.643 C 200.556 222.946,200.590 224.145,199.826 224.778 C 198.959 225.498,196.635 225.151,196.469 224.277 C 196.155 222.619,197.704 221.851,199.767 222.643 M184.883 224.322 C 183.965 226.222,184.143 226.800,185.646 226.800 C 187.157 226.800,187.468 225.973,186.625 224.197 C 185.802 222.462,185.781 222.464,184.883 224.322 M208.000 224.100 C 208.000 224.265,209.069 224.400,210.376 224.400 C 212.855 224.400,213.374 224.680,212.948 225.791 C 212.769 226.258,212.267 226.434,211.247 226.388 C 208.959 226.284,208.000 226.377,207.999 226.700 C 207.999 226.865,209.269 226.940,210.822 226.866 L 213.646 226.733 213.523 225.466 C 213.400 224.205,213.390 224.199,210.700 224.000 C 209.214 223.890,207.999 223.935,208.000 224.100 M186.800 225.676 C 186.800 225.854,186.350 226.000,185.800 226.000 C 184.668 226.000,184.620 225.884,185.253 224.702 C 185.702 223.862,186.800 224.554,186.800 225.676 M144.696 234.834 C 141.802 236.520,143.285 242.000,146.635 242.000 C 147.668 242.000,149.600 241.220,149.600 240.802 C 149.600 240.122,148.981 240.052,148.095 240.632 C 145.950 242.037,143.152 239.128,144.453 236.845 C 144.991 235.900,145.266 235.804,147.324 235.846 C 149.861 235.898,149.847 235.905,148.971 235.029 C 148.264 234.322,145.771 234.208,144.696 234.834 M154.511 235.109 C 152.378 236.766,152.599 239.790,154.965 241.341 C 158.584 243.712,162.432 238.541,159.345 235.455 C 158.091 234.200,155.883 234.043,154.511 235.109 M164.749 235.486 C 164.695 236.685,164.706 240.807,164.764 241.300 C 164.950 242.855,165.600 241.017,165.600 238.939 L 165.600 236.278 166.402 237.203 C 166.844 237.711,167.789 238.907,168.502 239.858 C 170.432 242.432,170.976 242.066,171.116 238.096 C 171.213 235.344,171.131 234.800,170.616 234.800 C 170.144 234.800,170.000 235.263,170.000 236.776 C 170.000 239.467,169.530 239.556,167.796 237.195 C 165.841 234.532,164.819 233.958,164.749 235.486 M175.862 235.131 C 174.777 236.331,175.568 238.400,177.113 238.400 C 177.951 238.400,179.600 239.326,179.600 239.797 C 179.600 240.799,177.775 241.333,176.717 240.640 C 175.813 240.048,175.200 240.120,175.200 240.818 C 175.200 241.292,177.463 242.075,178.422 241.933 C 180.802 241.581,181.259 238.812,179.071 238.004 C 175.795 236.793,175.348 235.600,178.171 235.600 C 179.981 235.600,180.591 235.112,179.367 234.643 C 178.154 234.177,176.519 234.405,175.862 235.131 M184.294 234.639 C 183.826 235.107,184.405 235.600,185.424 235.600 C 186.373 235.600,186.400 235.684,186.400 238.633 C 186.400 240.882,186.529 241.623,186.900 241.500 C 187.236 241.387,187.400 240.425,187.400 238.574 C 187.400 235.835,187.408 235.814,188.577 235.608 C 190.664 235.239,189.875 234.603,187.183 234.484 C 185.744 234.420,184.444 234.490,184.294 234.639 M194.143 234.706 C 193.492 235.124,193.635 241.279,194.300 241.500 C 194.628 241.609,194.800 241.242,194.800 240.433 C 194.800 238.552,196.657 238.681,197.934 240.651 C 198.555 241.609,199.001 241.959,199.267 241.693 C 199.680 241.280,198.906 239.600,198.304 239.600 C 197.632 239.600,198.054 238.479,198.800 238.284 C 199.841 238.012,199.885 235.982,198.869 235.062 C 198.115 234.380,195.013 234.147,194.143 234.706 M215.208 235.391 C 212.236 238.555,216.331 243.996,219.740 241.414 C 220.924 240.517,220.142 239.871,218.818 240.653 C 217.184 241.618,215.200 240.242,215.200 238.144 C 215.200 236.071,216.035 235.445,218.424 235.728 C 220.456 235.969,221.004 235.552,219.626 234.814 C 218.218 234.060,216.212 234.322,215.208 235.391 M224.294 234.639 C 223.826 235.107,224.405 235.600,225.424 235.600 C 226.372 235.600,226.400 235.686,226.400 238.600 C 226.400 241.000,226.520 241.600,227.000 241.600 C 227.480 241.600,227.600 241.003,227.600 238.627 C 227.600 235.745,227.631 235.649,228.612 235.527 C 229.169 235.457,229.664 235.220,229.712 235.000 C 229.811 234.550,224.722 234.211,224.294 234.639 M233.938 234.595 C 233.831 234.702,233.795 235.917,233.859 237.295 C 233.922 238.673,233.980 240.306,233.987 240.924 C 233.994 241.568,234.171 241.942,234.400 241.800 C 234.620 241.664,234.800 239.943,234.800 237.976 C 234.800 234.799,234.584 233.950,233.938 234.595 M240.236 235.631 C 237.165 239.280,241.991 244.300,245.345 240.945 C 247.825 238.466,246.204 234.402,242.736 234.400 C 241.591 234.400,241.045 234.669,240.236 235.631 M256.256 234.678 C 256.115 234.818,256.000 235.888,256.000 237.054 C 256.000 239.611,255.631 239.569,253.494 236.772 C 251.253 233.838,250.800 234.084,250.800 238.233 C 250.800 242.296,251.667 242.870,252.000 239.028 L 252.200 236.719 254.320 239.370 C 256.902 242.598,257.200 242.477,257.200 238.200 C 257.200 235.115,256.908 234.025,256.256 234.678 M203.600 237.026 C 203.600 241.263,206.217 243.372,208.840 241.248 C 210.051 240.268,210.564 234.800,209.445 234.800 C 208.919 234.800,208.800 235.270,208.800 237.338 C 208.800 240.855,207.520 242.103,205.675 240.384 C 204.964 239.722,204.800 239.122,204.800 237.184 C 204.800 235.332,204.666 234.800,204.200 234.800 C 203.739 234.800,203.600 235.314,203.600 237.026 M243.781 235.593 C 245.968 236.424,245.916 239.763,243.701 240.772 C 242.438 241.348,240.777 240.345,240.373 238.764 C 240.073 237.587,240.933 235.727,241.895 235.477 C 242.283 235.376,242.633 235.272,242.674 235.246 C 242.715 235.221,243.213 235.377,243.781 235.593 M158.983 236.630 C 160.072 238.293,158.675 241.149,156.755 241.187 C 155.872 241.205,154.000 239.264,154.000 238.331 C 154.000 235.718,157.584 234.494,158.983 236.630 M198.327 236.695 C 198.089 238.752,194.800 238.788,194.800 236.733 C 194.800 235.654,194.888 235.600,196.627 235.600 C 198.381 235.600,198.448 235.643,198.327 236.695 " stroke="none" fill="#9b9b9a" fill-rule="evenodd"></path><path id="path4" d="M216.769 158.496 C 215.631 158.908,204.335 170.371,204.617 170.828 C 204.744 171.032,206.412 171.203,208.324 171.206 C 210.236 171.209,212.023 171.354,212.296 171.527 C 212.677 171.769,212.816 176.208,212.896 190.621 L 213.000 209.400 218.969 209.511 C 222.252 209.572,225.092 209.468,225.281 209.279 C 226.071 208.489,225.734 159.088,224.934 158.498 C 224.155 157.923,218.355 157.921,216.769 158.496 M224.633 159.777 C 225.220 160.581,225.529 207.076,224.957 208.567 C 224.692 209.258,214.737 209.529,213.704 208.873 C 213.323 208.631,213.184 204.192,213.104 189.779 L 213.000 171.000 210.000 170.899 C 204.663 170.719,204.616 171.077,210.810 164.832 C 216.795 158.799,216.433 159.000,221.333 159.001 C 223.575 159.001,224.167 159.140,224.633 159.777 M223.575 220.297 C 220.203 222.347,219.811 227.037,222.791 229.681 C 227.534 233.890,234.733 229.456,232.777 223.530 C 232.067 221.379,229.869 219.587,228.009 219.641 L 226.600 219.683 228.200 220.094 C 234.306 221.665,233.402 230.800,227.140 230.800 C 221.022 230.800,219.107 223.084,224.566 220.433 C 225.590 219.936,225.901 219.646,225.400 219.657 C 224.960 219.666,224.139 219.954,223.575 220.297 M235.375 220.121 C 235.265 220.408,235.226 222.973,235.287 225.821 L 235.400 231.000 236.600 231.000 L 237.800 231.000 237.918 228.300 C 238.071 224.816,238.905 224.937,241.389 228.806 C 244.274 233.301,245.400 232.345,245.400 225.400 L 245.400 219.800 244.200 219.800 L 243.000 219.800 242.882 222.500 C 242.725 226.073,242.448 225.997,239.226 221.500 C 237.834 219.557,235.862 218.851,235.375 220.121 M248.243 220.233 C 247.927 221.055,247.938 229.126,248.256 230.313 C 248.656 231.809,257.000 231.511,257.000 230.000 C 257.000 229.040,256.880 228.992,254.000 228.800 C 249.886 228.526,249.467 227.128,253.400 226.800 C 257.087 226.493,257.152 224.270,253.480 224.079 C 249.395 223.867,249.905 222.017,254.051 222.006 C 256.417 222.000,257.498 221.352,257.057 220.205 C 256.707 219.293,248.594 219.318,248.243 220.233 M237.595 220.500 C 237.830 220.775,238.838 222.080,239.834 223.400 C 243.063 227.676,243.600 227.672,243.600 223.376 C 243.600 220.667,243.672 220.400,244.400 220.400 C 245.159 220.400,245.200 220.667,245.200 225.600 C 245.200 232.073,244.395 232.517,241.336 227.731 C 238.433 223.188,237.216 223.238,237.206 227.900 C 237.201 230.531,237.126 230.800,236.400 230.800 C 235.591 230.800,235.097 221.036,235.867 220.267 C 236.291 219.843,237.131 219.956,237.595 220.500 M255.975 220.385 C 256.947 220.985,255.376 221.351,250.876 221.574 C 250.518 221.592,250.391 222.076,250.476 223.100 L 250.600 224.600 252.900 224.720 C 254.548 224.806,255.200 224.999,255.200 225.400 C 255.200 225.801,254.548 225.994,252.900 226.080 L 250.600 226.200 250.600 227.600 L 250.600 229.000 253.389 229.120 C 255.923 229.230,256.775 229.575,256.794 230.500 C 256.797 230.665,255.000 230.800,252.800 230.800 L 248.800 230.800 248.800 225.425 L 248.800 220.050 252.132 220.060 C 253.965 220.065,255.694 220.211,255.975 220.385 M224.971 222.065 C 222.349 223.928,222.258 226.640,224.748 228.700 C 225.677 229.468,228.802 229.336,229.477 228.500 C 231.587 225.888,231.070 222.342,228.495 221.769 C 227.893 221.635,227.126 221.453,226.791 221.365 C 226.457 221.276,225.638 221.591,224.971 222.065 M228.570 222.459 C 229.882 223.057,230.578 225.081,229.996 226.610 C 228.397 230.817,222.615 228.396,224.029 224.111 C 224.660 222.201,226.519 221.524,228.570 222.459 " stroke="none" fill="#dd8956" fill-rule="evenodd"></path></g></svg>