<?xml version="1.0" standalone="no"?>
<!DOCTYPE svg PUBLIC "-//W3C//DTD SVG 20010904//EN"
 "http://www.w3.org/TR/2001/REC-SVG-20010904/DTD/svg10.dtd">
<svg version="1.0" xmlns="http://www.w3.org/2000/svg"
 width="50.000000pt" height="50.000000pt" viewBox="0 0 500.000000 500.000000"
 preserveAspectRatio="xMidYMid meet">

<g transform="translate(0.000000,500.000000) scale(0.100000,-0.100000)"
fill="#000000" stroke="none">
<path d="M2080 2805 l0 -405 191 0 c178 0 198 -2 309 -30 65 -16 124 -30 129
-30 8 0 11 112 11 356 l0 356 -22 -5 c-57 -14 -201 -38 -204 -34 -4 3 286 107
299 107 4 0 7 -162 7 -360 l0 -360 45 0 45 0 0 405 0 405 -405 0 -405 0 0
-405z m590 -105 c0 -13 -7 -20 -18 -20 -24 0 -32 8 -25 26 8 22 43 17 43 -6z"/>
<path d="M1181 2130 c-40 -9 -57 -26 -66 -61 -10 -41 27 -75 110 -102 61 -19
70 -25 73 -49 8 -69 -126 -79 -157 -12 -19 42 -45 28 -29 -16 18 -52 115 -77
177 -46 46 24 60 84 28 124 -5 7 -39 21 -76 32 -85 26 -93 32 -89 61 7 49 109
60 130 13 11 -24 48 -34 48 -13 0 16 -56 69 -73 69 -9 0 -21 2 -29 4 -7 2 -28
0 -47 -4z"/>
<path d="M1495 2130 c-51 -11 -76 -30 -96 -73 -36 -80 -16 -160 50 -204 35
-24 103 -31 130 -14 9 6 25 2 44 -10 29 -17 47 -17 47 0 0 4 -11 13 -25 19
-25 11 -25 13 -9 37 24 36 33 100 22 145 -18 70 -91 115 -163 100z m88 -42
c22 -11 47 -67 47 -103 0 -14 -7 -42 -15 -61 -15 -37 -21 -38 -67 -19 -13 5
-18 2 -18 -9 0 -9 7 -16 15 -16 8 0 15 -4 15 -10 0 -17 -74 -11 -96 8 -32 25
-44 55 -44 109 0 96 78 144 163 101z"/>
<path d="M3110 2132 c-93 -16 -140 -140 -88 -233 71 -127 258 -69 258 81 0
102 -74 169 -170 152z m98 -56 c30 -30 44 -90 31 -138 -21 -79 -113 -105 -170
-49 -26 26 -29 37 -29 89 0 64 22 106 63 121 34 13 80 3 105 -23z"/>
<path d="M1723 2008 c5 -122 6 -123 36 -150 25 -23 41 -28 81 -28 92 0 119 48
120 218 0 74 -2 82 -19 82 -18 0 -20 -10 -23 -121 -3 -106 -5 -122 -22 -135
-31 -22 -83 -18 -111 11 -24 23 -25 31 -25 135 0 106 -1 110 -21 110 -22 0
-22 -2 -16 -122z"/>
<path d="M2107 2123 c-8 -14 -107 -279 -107 -287 0 -4 7 -6 16 -4 9 2 24 23
34 47 l17 44 63 3 63 2 20 -49 c14 -33 27 -49 39 -49 10 0 18 2 18 3 0 2 -27
69 -59 148 -46 111 -64 145 -79 147 -11 2 -22 0 -25 -5z m51 -95 c12 -35 22
-66 22 -70 0 -5 -23 -8 -51 -8 -35 0 -49 4 -47 13 13 47 43 127 47 127 4 0 16
-28 29 -62z"/>
<path d="M2310 1980 c0 -125 2 -150 15 -150 11 0 15 16 17 68 l3 67 32 3 c46
5 65 -9 109 -78 29 -44 45 -60 62 -60 l22 0 -26 43 c-15 23 -38 54 -52 69
l-25 27 24 10 c46 17 60 48 46 102 -9 36 -46 49 -142 49 l-85 0 0 -150z m182
103 c22 -20 23 -41 1 -65 -13 -14 -31 -18 -85 -18 l-68 0 0 50 0 50 67 0 c48
0 72 -5 85 -17z"/>
<path d="M2612 1983 l3 -148 108 -3 c91 -2 107 0 107 13 0 12 -16 15 -90 15
l-90 0 0 55 0 55 80 0 c64 0 80 3 80 15 0 12 -16 15 -80 15 l-80 0 0 50 0 50
90 0 c73 0 90 3 90 15 0 12 -19 15 -110 15 l-111 0 3 -147z"/>
<path d="M3340 1980 c0 -127 2 -150 15 -150 12 0 15 19 15 115 0 63 3 115 8
115 4 0 41 -52 82 -115 104 -159 110 -157 110 35 0 127 -2 150 -15 150 -12 0
-15 -20 -15 -116 0 -66 -4 -113 -9 -110 -5 3 -42 55 -83 116 -102 153 -108
151 -108 -40z"/>
<path d="M3642 1983 l3 -148 108 -3 c91 -2 107 0 107 13 0 12 -16 15 -90 15
l-90 0 0 55 0 54 82 3 c54 2 83 7 86 16 3 9 -18 12 -82 12 l-86 0 0 50 0 50
90 0 c73 0 90 3 90 15 0 12 -19 15 -110 15 l-111 0 3 -147z"/>
</g>
</svg>
