<?xml version="1.0" standalone="no"?>
<!DOCTYPE svg PUBLIC "-//W3C//DTD SVG 20010904//EN"
 "http://www.w3.org/TR/2001/REC-SVG-20010904/DTD/svg10.dtd">
<svg version="1.0" xmlns="http://www.w3.org/2000/svg"
 width="340.000000pt" height="200.000000pt" viewBox="0 0 340.000000 200.000000"
 preserveAspectRatio="xMidYMid meet">

<g transform="translate(0.000000,200.000000) scale(0.100000,-0.100000)"
fill="#000000" stroke="none">
<path d="M1240 1375 l0 -405 191 0 c178 0 198 -2 309 -30 65 -17 124 -30 129
-30 8 0 11 112 11 355 l0 356 -37 -7 c-21 -3 -69 -12 -106 -20 -38 -8 -74 -14
-80 -13 -12 0 282 109 295 109 5 0 8 -162 8 -360 l0 -360 45 0 45 0 0 405 0
405 -405 0 -405 0 0 -405z m590 -105 c0 -13 -7 -20 -18 -20 -24 0 -32 8 -25
26 8 22 43 17 43 -6z"/>
<path d="M341 700 c-40 -9 -57 -26 -66 -61 -10 -41 27 -75 110 -102 61 -19 70
-25 73 -49 6 -50 -67 -75 -128 -43 -17 9 -30 22 -30 30 0 17 -16 28 -29 20
-19 -11 10 -63 44 -79 90 -43 197 9 178 85 -10 39 -22 48 -100 71 -61 18 -74
25 -80 45 -6 28 12 51 42 54 53 5 76 -2 87 -26 11 -25 48 -35 48 -14 0 16 -56
69 -73 69 -9 0 -21 2 -29 4 -7 2 -28 0 -47 -4z"/>
<path d="M655 700 c-51 -11 -76 -30 -96 -73 -36 -80 -16 -160 50 -204 34 -23
87 -29 126 -14 13 5 30 2 49 -10 28 -17 46 -17 46 0 0 4 -11 13 -25 19 l-25
11 21 35 c22 38 27 114 11 156 -23 58 -93 94 -157 80z m86 -41 c21 -11 49 -70
49 -103 0 -15 -7 -43 -15 -62 -15 -37 -21 -38 -67 -19 -13 5 -18 2 -18 -9 0
-9 7 -16 15 -16 21 0 19 -20 -2 -21 -51 -4 -90 15 -109 53 -19 37 -18 118 2
147 31 44 93 57 145 30z"/>
<path d="M2278 700 c-76 -14 -118 -66 -118 -151 0 -54 34 -114 76 -134 99 -47
204 21 204 133 0 106 -67 168 -162 152z m90 -54 c30 -30 44 -90 31 -138 -21
-79 -113 -105 -170 -49 -26 26 -29 37 -29 89 0 64 22 106 63 121 34 13 80 3
105 -23z"/>
<path d="M883 578 c5 -122 6 -123 36 -150 45 -40 117 -40 162 0 32 28 32 29
37 150 5 118 4 122 -16 122 -19 0 -21 -7 -24 -121 -3 -106 -5 -122 -22 -135
-31 -22 -83 -18 -111 11 -24 23 -25 31 -25 135 0 106 -1 110 -21 110 -22 0
-22 -2 -16 -122z"/>
<path d="M1267 693 c-8 -14 -107 -279 -107 -287 0 -4 7 -6 16 -4 9 2 24 23 34
48 17 43 19 45 61 45 73 2 86 -4 103 -45 8 -21 20 -41 26 -45 30 -19 22 19
-30 147 -45 110 -63 144 -78 146 -11 2 -22 0 -25 -5z m51 -95 c12 -35 22 -66
22 -70 0 -5 -23 -8 -51 -8 -35 0 -49 4 -47 13 13 47 43 127 47 127 4 0 16 -28
29 -62z"/>
<path d="M1470 550 c0 -125 2 -150 15 -150 11 0 15 16 17 68 l3 67 32 3 c46 5
65 -9 109 -78 29 -44 45 -60 62 -60 l22 0 -27 43 c-15 23 -38 54 -51 69 l-25
27 24 10 c46 17 60 48 46 102 -9 36 -46 49 -142 49 l-85 0 0 -150z m182 103
c22 -20 23 -41 1 -65 -13 -14 -31 -18 -85 -18 l-68 0 0 50 0 50 67 0 c48 0 72
-5 85 -17z"/>
<path d="M1772 553 l3 -148 108 -3 c91 -2 107 0 107 13 0 12 -16 15 -90 15
l-90 0 0 55 0 55 79 0 c61 0 80 3 85 15 4 13 -8 15 -79 15 l-85 0 0 50 0 50
90 0 c73 0 90 3 90 15 0 12 -19 15 -110 15 l-111 0 3 -147z"/>
<path d="M2500 550 c0 -127 2 -150 15 -150 12 0 15 19 15 115 0 63 3 115 8
115 4 0 41 -52 82 -115 104 -159 110 -157 110 35 0 125 -2 150 -15 150 -12 0
-15 -22 -17 -117 l-3 -118 -80 117 c-110 161 -115 160 -115 -32z"/>
<path d="M2802 553 l3 -148 108 -3 c91 -2 107 0 107 13 0 12 -16 15 -90 15
l-90 0 0 55 0 54 82 3 c54 2 83 7 86 16 3 9 -18 12 -82 12 l-86 0 0 50 0 50
90 0 c73 0 90 3 90 15 0 12 -19 15 -110 15 l-111 0 3 -147z"/>
</g>
</svg>
